#tb 0: 1/25
#media_type 0: video
#codec_id 0: h264
#dimensions 0: 352x288
#sar 0: 0/1
0,         -1,          0,        1,    17825, 0xe5bed0bf
0,          0,          1,        1,    15832, 0x4456a1aa
0,          1,          2,        1,    16050, 0x09f446eb
0,          2,          3,        1,    16053, 0x0e5df4df
0,          3,          4,        1,    16119, 0xc1422f8f
0,          4,          5,        1,    16151, 0xf6d03524
0,          5,          6,        1,    16308, 0x72b0b836
0,          6,          7,        1,    16487, 0xd6d6fc79
0,          7,          8,        1,    16491, 0xa64f0f67
0,          8,          9,        1,    16711, 0xa05754b4
0,          9,         10,        1,    16825, 0x91fcc487
0,         10,         11,        1,    17201, 0x947dc4c9
0,         11,         12,        1,    17454, 0x1c6709e2
0,         12,         13,        1,    17586, 0x26373af2
0,         13,         14,        1,    17705, 0xf9046e2b
0,         14,         15,        1,    17961, 0x34a4f206
0,         15,         16,        1,    18199, 0x8a7c64d1
0,         16,         17,        1,    18343, 0x8141c16c
0,         17,         18,        1,    18687, 0xc6716920
0,         18,         19,        1,    18864, 0x7179c185
0,         19,         20,        1,    18988, 0xa8b8d4c8
0,         20,         21,        1,    19315, 0x01619935
0,         21,         22,        1,    19482, 0x1d051930
0,         22,         23,        1,    19799, 0xd4215e7e
0,         23,         24,        1,    20001, 0xd2030658
0,         24,         25,        1,    20202, 0x7b2e7520
0,         25,         26,        1,    20383, 0xb05fedef
0,         26,         27,        1,    20486, 0xfcc0cc03
0,         27,         28,        1,    20640, 0x1190363c
0,         28,         29,        1,    20821, 0x9ea38a37
0,         29,         30,        1,    20961, 0xbbc10804
0,         30,         31,        1,    21087, 0x269b0e81
0,         31,         32,        1,    21287, 0x6eeb65a2
0,         32,         33,        1,    21462, 0x76b2dccb
0,         33,         34,        1,    21603, 0x71b11f86
0,         34,         35,        1,    21822, 0x62f279fa
0,         35,         36,        1,    22109, 0x06ab4dd6
0,         36,         37,        1,    22252, 0x09805369
0,         37,         38,        1,    22460, 0x14b58e3d
0,         38,         39,        1,    22545, 0x5d7f1ccf
0,         39,         40,        1,    22713, 0x9c114275
0,         40,         41,        1,    22950, 0x0f626c3f
0,         41,         42,        1,    23084, 0xc45e098a
0,         42,         43,        1,    23127, 0xf0ec6a79
0,         43,         44,        1,    23205, 0xf3c548b7
0,         44,         45,        1,    23228, 0xb2fd2bd2
0,         45,         46,        1,    23272, 0x533f432f
0,         46,         47,        1,    23311, 0x6bf94a0f
0,         47,         48,        1,    23321, 0xf8576e72
0,         48,         49,        1,    23395, 0x6fba5efb
